<?xml version="1.0" standalone="yes"?>

<svg version="1.1" viewBox="0.0 0.0 588.0 324.0" fill="none" stroke="none" stroke-linecap="square" stroke-miterlimit="10" xmlns="http://www.w3.org/2000/svg" xmlns:xlink="http://www.w3.org/1999/xlink"><clipPath id="p.0"><path d="m0 0l588.0 0l0 324.0l-588.0 0l0 -324.0z" clip-rule="nonzero"></path></clipPath><g clip-path="url(#p.0)"><path fill="#000000" fill-opacity="0.0" d="m0 0l588.0 0l0 324.0l-588.0 0z" fill-rule="nonzero"></path><path fill="#cfe2f3" d="m77.45932 79.54068l0 0c0 -3.5485382 2.8766556 -6.425194 6.425194 -6.425194l0 0l0 0c1.704071 0 3.3383408 0.6769409 4.5433044 1.881897c1.204956 1.204956 1.881897 2.8392334 1.881897 4.543297l0 101.03938c0 3.5485382 -2.8766632 6.425186 -6.4252014 6.425186l0 0l0 0c-3.5485382 0 -6.425194 -2.876648 -6.425194 -6.425186z" fill-rule="nonzero"></path><path stroke="#000000" stroke-width="2.0" stroke-linejoin="round" stroke-linecap="butt" d="m77.45932 79.54068l0 0c0 -3.5485382 2.8766556 -6.425194 6.425194 -6.425194l0 0l0 0c1.704071 0 3.3383408 0.6769409 4.5433044 1.881897c1.204956 1.204956 1.881897 2.8392334 1.881897 4.543297l0 101.03938c0 3.5485382 -2.8766632 6.425186 -6.4252014 6.425186l0 0l0 0c-3.5485382 0 -6.425194 -2.876648 -6.425194 -6.425186z" fill-rule="nonzero"></path><path fill="#cfe2f3" d="m167.45932 79.54068l0 0c0 -3.5485382 2.8766632 -6.425194 6.4252014 -6.425194l0 0l0 0c1.7040558 0 3.3383331 0.6769409 4.543289 1.881897c1.204956 1.204956 1.881897 2.8392334 1.881897 4.543297l0 101.03938c0 3.5485382 -2.876648 6.425186 -6.425186 6.425186l0 0l0 0c-3.5485382 0 -6.4252014 -2.876648 -6.4252014 -6.425186z" fill-rule="nonzero"></path><path stroke="#000000" stroke-width="2.0" stroke-linejoin="round" stroke-linecap="butt" d="m167.45932 79.54068l0 0c0 -3.5485382 2.8766632 -6.425194 6.4252014 -6.425194l0 0l0 0c1.7040558 0 3.3383331 0.6769409 4.543289 1.881897c1.204956 1.204956 1.881897 2.8392334 1.881897 4.543297l0 101.03938c0 3.5485382 -2.876648 6.425186 -6.425186 6.425186l0 0l0 0c-3.5485382 0 -6.4252014 -2.876648 -6.4252014 -6.425186z" fill-rule="nonzero"></path><path fill="#cfe2f3" d="m480.34384 79.53937l0 0c0 -3.5485382 2.876648 -6.425194 6.4252014 -6.425194l0 0l0 0c1.7040405 0 3.3383179 0.6769409 4.543274 1.881897c1.204956 1.204956 1.881897 2.8392334 1.881897 4.543297l0 101.03938c0 3.5485382 -2.876648 6.425186 -6.425171 6.425186l0 0l0 0c-3.5485535 0 -6.4252014 -2.876648 -6.4252014 -6.425186z" fill-rule="nonzero"></path><path stroke="#000000" stroke-width="2.0" stroke-linejoin="round" stroke-linecap="butt" d="m480.34384 79.53937l0 0c0 -3.5485382 2.876648 -6.425194 6.4252014 -6.425194l0 0l0 0c1.7040405 0 3.3383179 0.6769409 4.543274 1.881897c1.204956 1.204956 1.881897 2.8392334 1.881897 4.543297l0 101.03938c0 3.5485382 -2.876648 6.425186 -6.425171 6.425186l0 0l0 0c-3.5485535 0 -6.4252014 -2.876648 -6.4252014 -6.425186z" fill-rule="nonzero"></path><path fill="#000000" fill-opacity="0.0" d="m29.007874 47.0l0 60.0" fill-rule="nonzero"></path><path stroke="#000000" stroke-width="2.0" stroke-linejoin="round" stroke-linecap="butt" d="m29.007874 47.0l0 60.0" fill-rule="nonzero"></path><path fill="#000000" fill-opacity="0.0" d="m29.501312 105.99213l47.496063 0" fill-rule="nonzero"></path><path stroke="#000000" stroke-width="2.0" stroke-linejoin="round" stroke-linecap="butt" d="m29.501312 105.99213l35.496063 0" fill-rule="evenodd"></path><path fill="#000000" stroke="#000000" stroke-width="2.0" stroke-linecap="butt" d="m64.997375 109.29559l9.076195 -3.3034668l-9.076195 -3.3034668z" fill-rule="evenodd"></path><path fill="#000000" fill-opacity="0.0" d="m91.0 171.0l77.00787 0" fill-rule="nonzero"></path><path stroke="#000000" stroke-width="2.0" stroke-linejoin="round" stroke-linecap="butt" d="m91.0 171.0l65.00787 0" fill-rule="evenodd"></path><path fill="#000000" stroke="#000000" stroke-width="2.0" stroke-linecap="butt" d="m156.00787 174.30347l9.076202 -3.3034668l-9.076202 -3.3034668z" fill-rule="evenodd"></path><path fill="#000000" fill-opacity="0.0" d="m180.38058 171.0l77.00787 0" fill-rule="nonzero"></path><path stroke="#000000" stroke-width="2.0" stroke-linejoin="round" stroke-linecap="butt" d="m180.38058 171.0l65.00787 0" fill-rule="evenodd"></path><path fill="#000000" stroke="#000000" stroke-width="2.0" stroke-linecap="butt" d="m245.38846 174.30347l9.076187 -3.3034668l-9.076187 -3.3034668z" fill-rule="evenodd"></path><path fill="#000000" fill-opacity="0.0" d="m401.5013 171.0l78.77164 0" fill-rule="nonzero"></path><path stroke="#000000" stroke-width="2.0" stroke-linejoin="round" stroke-linecap="butt" d="m401.5013 171.0l66.77167 0" fill-rule="evenodd"></path><path fill="#000000" stroke="#000000" stroke-width="2.0" stroke-linecap="butt" d="m468.27298 174.30347l9.076172 -3.3034668l-9.076172 -3.3034668z" fill-rule="evenodd"></path><path fill="#ffffff" d="m339.90683 127.05249l0 0c1.6611938 0 3.0078735 1.3466797 3.0078735 3.0078735l0 0c0 0.79774475 -0.31689453 1.5628052 -0.88098145 2.126892c-0.5640869 0.5640869 -1.3291626 0.88098145 -2.126892 0.88098145l0 0c-1.6611938 0 -3.0078735 -1.3466644 -3.0078735 -3.0078735l0 0c0 -1.6611938 1.3466797 -3.0078735 3.0078735 -3.0078735z" fill-rule="nonzero"></path><path stroke="#000000" stroke-width="2.0" stroke-linejoin="round" stroke-linecap="butt" d="m339.90683 127.05249l0 0c1.6611938 0 3.0078735 1.3466797 3.0078735 3.0078735l0 0c0 0.79774475 -0.31689453 1.5628052 -0.88098145 2.126892c-0.5640869 0.5640869 -1.3291626 0.88098145 -2.126892 0.88098145l0 0c-1.6611938 0 -3.0078735 -1.3466644 -3.0078735 -3.0078735l0 0c0 -1.6611938 1.3466797 -3.0078735 3.0078735 -3.0078735z" fill-rule="nonzero"></path><path fill="#ffffff" d="m328.90683 127.05249l0 0c1.6611938 0 3.0078735 1.3466797 3.0078735 3.0078735l0 0c0 0.79774475 -0.31689453 1.5628052 -0.88098145 2.126892c-0.5640869 0.5640869 -1.3291626 0.88098145 -2.126892 0.88098145l0 0c-1.6611938 0 -3.0078735 -1.3466644 -3.0078735 -3.0078735l0 0c0 -1.6611938 1.3466797 -3.0078735 3.0078735 -3.0078735z" fill-rule="nonzero"></path><path stroke="#000000" stroke-width="2.0" stroke-linejoin="round" stroke-linecap="butt" d="m328.90683 127.05249l0 0c1.6611938 0 3.0078735 1.3466797 3.0078735 3.0078735l0 0c0 0.79774475 -0.31689453 1.5628052 -0.88098145 2.126892c-0.5640869 0.5640869 -1.3291626 0.88098145 -2.126892 0.88098145l0 0c-1.6611938 0 -3.0078735 -1.3466644 -3.0078735 -3.0078735l0 0c0 -1.6611938 1.3466797 -3.0078735 3.0078735 -3.0078735z" fill-rule="nonzero"></path><path fill="#ffffff" d="m317.90683 127.05249l0 0c1.6611938 0 3.0078735 1.3466797 3.0078735 3.0078735l0 0c0 0.79774475 -0.31689453 1.5628052 -0.88098145 2.126892c-0.5640869 0.5640869 -1.3291626 0.88098145 -2.126892 0.88098145l0 0c-1.6611938 0 -3.0078735 -1.3466644 -3.0078735 -3.0078735l0 0c0 -1.6611938 1.3466797 -3.0078735 3.0078735 -3.0078735z" fill-rule="nonzero"></path><path stroke="#000000" stroke-width="2.0" stroke-linejoin="round" stroke-linecap="butt" d="m317.90683 127.05249l0 0c1.6611938 0 3.0078735 1.3466797 3.0078735 3.0078735l0 0c0 0.79774475 -0.31689453 1.5628052 -0.88098145 2.126892c-0.5640869 0.5640869 -1.3291626 0.88098145 -2.126892 0.88098145l0 0c-1.6611938 0 -3.0078735 -1.3466644 -3.0078735 -3.0078735l0 0c0 -1.6611938 1.3466797 -3.0078735 3.0078735 -3.0078735z" fill-rule="nonzero"></path><path fill="#000000" fill-opacity="0.0" d="m15.532808 16.0l168.94489 0l0 36.503937l-168.94489 0z" fill-rule="nonzero"></path><path fill="#000000" d="m25.032808 37.875626l1.390625 -0.21875q0.109375 0.84375 0.640625 1.296875q0.546875 0.4375 1.5 0.4375q0.96875 0 1.4375 -0.390625q0.46875 -0.40625 0.46875 -0.9375q0 -0.46875 -0.40625 -0.75q-0.296875 -0.1875 -1.4375 -0.46875q-1.546875 -0.390625 -2.15625 -0.671875q-0.59375 -0.296875 -0.90625 -0.796875q-0.296875 -0.5 -0.296875 -1.109375q0 -0.5625 0.25 -1.03125q0.25 -0.46875 0.6875 -0.78125q0.328125 -0.25 0.890625 -0.40625q0.578125 -0.171875 1.21875 -0.171875q0.984375 0 1.71875 0.28125q0.734375 0.28125 1.078125 0.765625q0.359375 0.46875 0.5 1.28125l-1.375 0.1875q-0.09375 -0.640625 -0.546875 -1.0q-0.453125 -0.359375 -1.265625 -0.359375q-0.96875 0 -1.390625 0.328125q-0.40625 0.3125 -0.40625 0.734375q0 0.28125 0.171875 0.5q0.171875 0.21875 0.53125 0.375q0.21875 0.078125 1.25 0.359375q1.484375 0.390625 2.078125 0.65625q0.59375 0.25 0.921875 0.734375q0.34375 0.484375 0.34375 1.203125q0 0.703125 -0.421875 1.328125q-0.40625 0.609375 -1.1875 0.953125q-0.765625 0.34375 -1.734375 0.34375q-1.625 0 -2.46875 -0.671875q-0.84375 -0.671875 -1.078125 -2.0zm13.968752 1.453125q-0.78125 0.671875 -1.5 0.953125q-0.71875 0.265625 -1.546875 0.265625q-1.375 0 -2.109375 -0.671875q-0.734375 -0.671875 -0.734375 -1.703125q0 -0.609375 0.28125 -1.109375q0.28125 -0.515625 0.71875 -0.8125q0.453125 -0.3125 1.015625 -0.46875q0.421875 -0.109375 1.25 -0.203125q1.703125 -0.203125 2.515625 -0.484375q0 -0.296875 0 -0.375q0 -0.859375 -0.390625 -1.203125q-0.546875 -0.484375 -1.609375 -0.484375q-0.984375 0 -1.46875 0.359375q-0.46875 0.34375 -0.6875 1.21875l-1.375 -0.1875q0.1875 -0.875 0.609375 -1.421875q0.4375 -0.546875 1.25 -0.828125q0.8125 -0.296875 1.875 -0.296875q1.0625 0 1.71875 0.25q0.671875 0.25 0.984375 0.625q0.3125 0.375 0.4375 0.953125q0.078125 0.359375 0.078125 1.296875l0 1.875q0 1.96875 0.078125 2.484375q0.09375 0.515625 0.359375 1.0l-1.46875 0q-0.21875 -0.4375 -0.28125 -1.03125zm-0.109375 -3.140625q-0.765625 0.3125 -2.296875 0.53125q-0.875 0.125 -1.234375 0.28125q-0.359375 0.15625 -0.5625 0.46875q-0.1875 0.296875 -0.1875 0.65625q0 0.5625 0.421875 0.9375q0.4375 0.375 1.25 0.375q0.8125 0 1.4375 -0.34375q0.640625 -0.359375 0.9375 -0.984375q0.234375 -0.46875 0.234375 -1.40625l0 -0.515625zm3.5703125 4.171875l0 -11.453125l1.40625 0l0 11.453125l-1.40625 0zm6.6484375 -1.265625l0.203125 1.25q-0.59375 0.125 -1.0625 0.125q-0.765625 0 -1.1875 -0.234375q-0.421875 -0.25 -0.59375 -0.640625q-0.171875 -0.40625 -0.171875 -1.671875l0 -4.765625l-1.03125 0l0 -1.09375l1.03125 0l0 -2.0625l1.40625 -0.84375l0 2.90625l1.40625 0l0 1.09375l-1.40625 0l0 4.84375q0 0.609375 0.0625 0.78125q0.078125 0.171875 0.25 0.28125q0.171875 0.09375 0.484375 0.09375q0.234375 0 0.609375 -0.0625zm6.234375 4.640625l0 -15.03125l1.234375 0l0 15.03125l-1.234375 0zm4.15625 0l0 -15.03125l1.234375 0l0 15.03125l-1.234375 0zm8.195309 -0.1875l0 -11.484375l1.28125 0l0 1.078125q0.453125 -0.640625 1.015625 -0.953125q0.578125 -0.3125 1.390625 -0.3125q1.0625 0 1.875 0.546875q0.8125 0.546875 1.21875 1.546875q0.421875 0.984375 0.421875 2.171875q0 1.28125 -0.46875 2.296875q-0.453125 1.015625 -1.328125 1.5625q-0.859375 0.546875 -1.828125 0.546875q-0.703125 0 -1.265625 -0.296875q-0.546875 -0.296875 -0.90625 -0.75l0 4.046875l-1.40625 0zm1.265625 -7.296875q0 1.609375 0.640625 2.375q0.65625 0.765625 1.578125 0.765625q0.9375 0 1.609375 -0.796875q0.671875 -0.796875 0.671875 -2.453125q0 -1.59375 -0.65625 -2.375q-0.65625 -0.796875 -1.5625 -0.796875q-0.890625 0 -1.59375 0.84375q-0.6875 0.84375 -0.6875 2.4375zm13.0390625 3.078125q-0.78125 0.671875 -1.5 0.953125q-0.71875 0.265625 -1.546875 0.265625q-1.375 0 -2.109375 -0.671875q-0.734375 -0.671875 -0.734375 -1.703125q0 -0.609375 0.28125 -1.109375q0.28125 -0.515625 0.71875 -0.8125q0.453125 -0.3125 1.015625 -0.46875q0.421875 -0.109375 1.25 -0.203125q1.703125 -0.203125 2.515625 -0.484375q0 -0.296875 0 -0.375q0 -0.859375 -0.390625 -1.203125q-0.546875 -0.484375 -1.609375 -0.484375q-0.984375 0 -1.46875 0.359375q-0.46875 0.34375 -0.6875 1.21875l-1.375 -0.1875q0.1875 -0.875 0.609375 -1.421875q0.4375 -0.546875 1.25 -0.828125q0.8125 -0.296875 1.875 -0.296875q1.0625 0 1.71875 0.25q0.671875 0.25 0.984375 0.625q0.3125 0.375 0.4375 0.953125q0.078125 0.359375 0.078125 1.296875l0 1.875q0 1.96875 0.078125 2.484375q0.09375 0.515625 0.359375 1.0l-1.46875 0q-0.21875 -0.4375 -0.28125 -1.03125zm-0.109375 -3.140625q-0.765625 0.3125 -2.296875 0.53125q-0.875 0.125 -1.234375 0.28125q-0.359375 0.15625 -0.5625 0.46875q-0.1875 0.296875 -0.1875 0.65625q0 0.5625 0.421875 0.9375q0.4375 0.375 1.25 0.375q0.8125 0 1.4375 -0.34375q0.640625 -0.359375 0.9375 -0.984375q0.234375 -0.46875 0.234375 -1.40625l0 -0.515625zm3.0390625 1.6875l1.390625 -0.21875q0.109375 0.84375 0.640625 1.296875q0.546875 0.4375 1.5 0.4375q0.96875 0 1.4375 -0.390625q0.46875 -0.40625 0.46875 -0.9375q0 -0.46875 -0.40625 -0.75q-0.296875 -0.1875 -1.4375 -0.46875q-1.546875 -0.390625 -2.15625 -0.671875q-0.59375 -0.296875 -0.90625 -0.796875q-0.296875 -0.5 -0.296875 -1.109375q0 -0.5625 0.25 -1.03125q0.25 -0.46875 0.6875 -0.78125q0.328125 -0.25 0.890625 -0.40625q0.578125 -0.171875 1.21875 -0.171875q0.984375 0 1.71875 0.28125q0.734375 0.28125 1.078125 0.765625q0.359375 0.46875 0.5 1.28125l-1.375 0.1875q-0.09375 -0.640625 -0.546875 -1.0q-0.453125 -0.359375 -1.265625 -0.359375q-0.96875 0 -1.390625 0.328125q-0.40625 0.3125 -0.40625 0.734375q0 0.28125 0.171875 0.5q0.171875 0.21875 0.53125 0.375q0.21875 0.078125 1.25 0.359375q1.484375 0.390625 2.078125 0.65625q0.59375 0.25 0.921875 0.734375q0.34375 0.484375 0.34375 1.203125q0 0.703125 -0.421875 1.328125q-0.40625 0.609375 -1.1875 0.953125q-0.765625 0.34375 -1.734375 0.34375q-1.625 0 -2.46875 -0.671875q-0.84375 -0.671875 -1.078125 -2.0zm8.0 0l1.390625 -0.21875q0.109375 0.84375 0.640625 1.296875q0.546875 0.4375 1.5 0.4375q0.96875 0 1.4375 -0.390625q0.46875 -0.40625 0.46875 -0.9375q0 -0.46875 -0.40625 -0.75q-0.296875 -0.1875 -1.4375 -0.46875q-1.546875 -0.390625 -2.15625 -0.671875q-0.59375 -0.296875 -0.90625 -0.796875q-0.296875 -0.5 -0.296875 -1.109375q0 -0.5625 0.25 -1.03125q0.25 -0.46875 0.6875 -0.78125q0.328125 -0.25 0.890625 -0.40625q0.578125 -0.171875 1.21875 -0.171875q0.984375 0 1.71875 0.28125q0.734375 0.28125 1.078125 0.765625q0.359375 0.46875 0.5 1.28125l-1.375 0.1875q-0.09375 -0.640625 -0.546875 -1.0q-0.453125 -0.359375 -1.265625 -0.359375q-0.96875 0 -1.390625 0.328125q-0.40625 0.3125 -0.40625 0.734375q0 0.28125 0.171875 0.5q0.171875 0.21875 0.53125 0.375q0.21875 0.078125 1.25 0.359375q1.484375 0.390625 2.078125 0.65625q0.59375 0.25 0.921875 0.734375q0.34375 0.484375 0.34375 1.203125q0 0.703125 -0.421875 1.328125q-0.40625 0.609375 -1.1875 0.953125q-0.765625 0.34375 -1.734375 0.34375q-1.625 0 -2.46875 -0.671875q-0.84375 -0.671875 -1.078125 -2.0zm10.09375 2.484375l-2.546875 -8.296875l1.453125 0l1.328125 4.78125l0.484375 1.78125q0.03125 -0.125 0.4375 -1.703125l1.3125 -4.859375l1.453125 0l1.234375 4.8125l0.421875 1.578125l0.46875 -1.59375l1.421875 -4.796875l1.375 0l-2.59375 8.296875l-1.46875 0l-1.3125 -4.96875l-0.328125 -1.421875l-1.671875 6.390625l-1.46875 0zm9.4921875 -4.15625q0 -2.296875 1.28125 -3.40625q1.078125 -0.921875 2.609375 -0.921875q1.71875 0 2.796875 1.125q1.09375 1.109375 1.09375 3.09375q0 1.59375 -0.484375 2.515625q-0.484375 0.921875 -1.40625 1.4375q-0.90625 0.5 -2.0 0.5q-1.734375 0 -2.8125 -1.109375q-1.078125 -1.125 -1.078125 -3.234375zm1.453125 0q0 1.59375 0.6875 2.390625q0.703125 0.796875 1.75 0.796875q1.046875 0 1.734375 -0.796875q0.703125 -0.796875 0.703125 -2.4375q0 -1.53125 -0.703125 -2.328125q-0.6875 -0.796875 -1.734375 -0.796875q-1.046875 0 -1.75 0.796875q-0.6875 0.78125 -0.6875 2.375zm7.9609375 4.15625l0 -8.296875l1.265625 0l0 1.25q0.484375 -0.875 0.890625 -1.15625q0.40625 -0.28125 0.90625 -0.28125q0.703125 0 1.4375 0.453125l-0.484375 1.296875q-0.515625 -0.296875 -1.03125 -0.296875q-0.453125 0 -0.828125 0.28125q-0.359375 0.265625 -0.515625 0.765625q-0.234375 0.75 -0.234375 1.640625l0 4.34375l-1.40625 0zm10.71875 0l0 -1.046875q-0.78125 1.234375 -2.3125 1.234375q-1.0 0 -1.828125 -0.546875q-0.828125 -0.546875 -1.296875 -1.53125q-0.453125 -0.984375 -0.453125 -2.25q0 -1.25 0.40625 -2.25q0.421875 -1.015625 1.25 -1.546875q0.828125 -0.546875 1.859375 -0.546875q0.75 0 1.328125 0.3125q0.59375 0.3125 0.953125 0.828125l0 -4.109375l1.40625 0l0 11.453125l-1.3125 0zm-4.4375 -4.140625q0 1.59375 0.671875 2.390625q0.671875 0.78125 1.578125 0.78125q0.921875 0 1.5625 -0.75q0.65625 -0.765625 0.65625 -2.3125q0 -1.703125 -0.65625 -2.5q-0.65625 -0.796875 -1.625 -0.796875q-0.9375 0 -1.5625 0.765625q-0.625 0.765625 -0.625 2.421875zm12.8125 7.515625l0 -15.03125l1.234375 0l0 15.03125l-1.234375 0zm4.15625 0l0 -15.03125l1.234375 0l0 15.03125l-1.234375 0z" fill-rule="nonzero"></path><path fill="#000000" d="m25.595308 62.5475l0 -11.484375l1.28125 0l0 1.078125q0.453125 -0.640625 1.015625 -0.953125q0.578125 -0.3125 1.390625 -0.3125q1.0625 0 1.875 0.546875q0.8125 0.546875 1.2187519 1.546875q0.421875 0.984375 0.421875 2.171875q0 1.28125 -0.46875 2.296875q-0.4531269 1.015625 -1.3281269 1.5625q-0.859375 0.546875 -1.828125 0.546875q-0.703125 0 -1.265625 -0.296875q-0.546875 -0.296875 -0.90625 -0.75l0 4.046875l-1.40625 0zm1.265625 -7.296875q0 1.609375 0.640625 2.375q0.65625 0.765625 1.578125 0.765625q0.9375 0 1.609375 -0.796875q0.671875 -0.796875 0.671875 -2.453125q0 -1.59375 -0.65625 -2.375q-0.65625 -0.796875 -1.5625 -0.796875q-0.890625 0 -1.59375 0.84375q-0.6875 0.84375 -0.6875 2.4375zm13.039064 3.078125q-0.78125 0.671875 -1.5 0.953125q-0.71875 0.265625 -1.546875 0.265625q-1.375 0 -2.109375 -0.671875q-0.734375 -0.671875 -0.734375 -1.703125q0 -0.609375 0.28125 -1.109375q0.28125 -0.515625 0.71875 -0.8125q0.453125 -0.3125 1.015625 -0.46875q0.421875 -0.109375 1.25 -0.203125q1.703125 -0.203125 2.515625 -0.484375q0 -0.296875 0 -0.375q0 -0.859375 -0.390625 -1.203125q-0.546875 -0.484375 -1.609375 -0.484375q-0.984375 0 -1.46875 0.359375q-0.46875 0.34375 -0.6875 1.21875l-1.375 -0.1875q0.1875 -0.875 0.609375 -1.421875q0.4375 -0.546875 1.25 -0.828125q0.8125 -0.296875 1.875 -0.296875q1.0625 0 1.71875 0.25q0.671875 0.25 0.984375 0.625q0.3125 0.375 0.4375 0.953125q0.078125 0.359375 0.078125 1.296875l0 1.875q0 1.96875 0.078125 2.484375q0.09375 0.515625 0.359375 1.0l-1.46875 0q-0.21875 -0.4375 -0.28125 -1.03125zm-0.109375 -3.140625q-0.765625 0.3125 -2.296875 0.53125q-0.875 0.125 -1.234375 0.28125q-0.359375 0.15625 -0.5625 0.46875q-0.1875 0.296875 -0.1875 0.65625q0 0.5625 0.421875 0.9375q0.4375 0.375 1.25 0.375q0.8125 0 1.4375 -0.34375q0.640625 -0.359375 0.9375 -0.984375q0.234375 -0.46875 0.234375 -1.40625l0 -0.515625zm8.9765625 4.171875l0 -1.046875q-0.78125 1.234375 -2.3125 1.234375q-1.0 0 -1.828125 -0.546875q-0.828125 -0.546875 -1.296875 -1.53125q-0.453125 -0.984375 -0.453125 -2.25q0 -1.25 0.40625 -2.25q0.421875 -1.015625 1.25 -1.546875q0.828125 -0.546875 1.859375 -0.546875q0.75 0 1.328125 0.3125q0.59375 0.3125 0.953125 0.828125l0 -4.109375l1.40625 0l0 11.453125l-1.3125 0zm-4.4375 -4.140625q0 1.59375 0.671875 2.390625q0.671875 0.78125 1.578125 0.78125q0.921875 0 1.5625 -0.75q0.65625 -0.765625 0.65625 -2.3125q0 -1.703125 -0.65625 -2.5q-0.65625 -0.796875 -1.625 -0.796875q-0.9375 0 -1.5625 0.765625q-0.625 0.765625 -0.625 2.421875z" fill-rule="nonzero"></path><path fill="#000000" fill-opacity="0.0" d="m106.997375 195.98688l-19.275589 56.34645" fill-rule="nonzero"></path><path stroke="#9fc5e8" stroke-width="2.0" stroke-linejoin="round" stroke-linecap="butt" d="m106.997375 195.98688l-15.391487 44.99243" fill-rule="evenodd"></path><path fill="#9fc5e8" stroke="#9fc5e8" stroke-width="2.0" stroke-linecap="butt" d="m88.480255 239.91006l0.1878891 9.65686l6.0633774 -7.5183563z" fill-rule="evenodd"></path><path fill="#000000" fill-opacity="0.0" d="m115.73753 105.74015l-14.960632 146.07874" fill-rule="nonzero"></path><path stroke="#9fc5e8" stroke-width="2.0" stroke-linejoin="round" stroke-linecap="butt" d="m115.73753 105.74016l-13.738045 134.14117" fill-rule="evenodd"></path><path fill="#9fc5e8" stroke="#9fc5e8" stroke-width="2.0" stroke-linecap="butt" d="m98.71321 239.54477l2.3615723 9.36554l4.2109756 -8.692398z" fill-rule="evenodd"></path><path fill="#000000" fill-opacity="0.0" d="m107.25722 196.25984l6.2677155 55.55905" fill-rule="nonzero"></path><path stroke="#9fc5e8" stroke-width="2.0" stroke-linejoin="round" stroke-linecap="butt" d="m107.25722 196.25984l4.9225082 43.634705" fill-rule="evenodd"></path><path fill="#9fc5e8" stroke="#9fc5e8" stroke-width="2.0" stroke-linecap="butt" d="m108.89708 240.26486l4.3000946 8.648666l2.2651978 -9.389313z" fill-rule="evenodd"></path><path fill="#000000" fill-opacity="0.0" d="m91.0 105.99213l77.00787 0" fill-rule="nonzero"></path><path stroke="#000000" stroke-width="2.0" stroke-linejoin="round" stroke-linecap="butt" d="m91.0 105.99213l65.00787 0" fill-rule="evenodd"></path><path fill="#000000" stroke="#000000" stroke-width="2.0" stroke-linecap="butt" d="m156.00787 109.29559l9.076202 -3.3034668l-9.076202 -3.3034668z" fill-rule="evenodd"></path><path fill="#ffffff" d="m81.50131 259.50394l12.850395 0l0 12.850403l-12.850395 0z" fill-rule="nonzero"></path><path stroke="#000000" stroke-width="2.0" stroke-linejoin="round" stroke-linecap="butt" d="m81.50131 259.50394l12.850395 0l0 12.850403l-12.850395 0z" fill-rule="nonzero"></path><path fill="#ffffff" d="m94.35171 259.50394l12.850395 0l0 12.850403l-12.850395 0z" fill-rule="nonzero"></path><path stroke="#000000" stroke-width="2.0" stroke-linejoin="round" stroke-linecap="butt" d="m94.35171 259.50394l12.850395 0l0 12.850403l-12.850395 0z" fill-rule="nonzero"></path><path fill="#ffffff" d="m107.2021 259.50394l12.850388 0l0 12.850403l-12.850388 0z" fill-rule="nonzero"></path><path stroke="#000000" stroke-width="2.0" stroke-linejoin="round" stroke-linecap="butt" d="m107.2021 259.50394l12.850388 0l0 12.850403l-12.850388 0z" fill-rule="nonzero"></path><path fill="#ffffff" d="m120.05249 259.50394l12.850403 0l0 12.850403l-12.850403 0z" fill-rule="nonzero"></path><path stroke="#000000" stroke-width="2.0" stroke-linejoin="round" stroke-linecap="butt" d="m120.05249 259.50394l12.850403 0l0 12.850403l-12.850403 0z" fill-rule="nonzero"></path><path fill="#ffffff" d="m132.9029 259.50394l12.850388 0l0 12.850403l-12.850388 0z" fill-rule="nonzero"></path><path stroke="#000000" stroke-width="2.0" stroke-linejoin="round" stroke-linecap="butt" d="m132.9029 259.50394l12.850388 0l0 12.850403l-12.850388 0z" fill-rule="nonzero"></path><path fill="#ffffff" d="m145.75328 259.50394l12.850388 0l0 12.850403l-12.850388 0z" fill-rule="nonzero"></path><path stroke="#000000" stroke-width="2.0" stroke-linejoin="round" stroke-linecap="butt" d="m145.75328 259.50394l12.850388 0l0 12.850403l-12.850388 0z" fill-rule="nonzero"></path><path fill="#ffffff" d="m158.60367 259.50394l12.850403 0l0 12.850403l-12.850403 0z" fill-rule="nonzero"></path><path stroke="#000000" stroke-width="2.0" stroke-linejoin="round" stroke-linecap="butt" d="m158.60367 259.50394l12.850403 0l0 12.850403l-12.850403 0z" fill-rule="nonzero"></path><path fill="#ffffff" d="m171.45407 259.50394l12.850388 0l0 12.850403l-12.850388 0z" fill-rule="nonzero"></path><path stroke="#000000" stroke-width="2.0" stroke-linejoin="round" stroke-linecap="butt" d="m171.45407 259.50394l12.850388 0l0 12.850403l-12.850388 0z" fill-rule="nonzero"></path><path fill="#ffffff" d="m184.30446 259.50394l12.850403 0l0 12.850403l-12.850403 0z" fill-rule="nonzero"></path><path stroke="#000000" stroke-width="2.0" stroke-linejoin="round" stroke-linecap="butt" d="m184.30446 259.50394l12.850403 0l0 12.850403l-12.850403 0z" fill-rule="nonzero"></path><path fill="#ffffff" d="m197.15486 259.50394l12.850388 0l0 12.850403l-12.850388 0z" fill-rule="nonzero"></path><path stroke="#000000" stroke-width="2.0" stroke-linejoin="round" stroke-linecap="butt" d="m197.15486 259.50394l12.850388 0l0 12.850403l-12.850388 0z" fill-rule="nonzero"></path><path fill="#ffffff" d="m210.00525 259.50394l12.850388 0l0 12.850403l-12.850388 0z" fill-rule="nonzero"></path><path stroke="#000000" stroke-width="2.0" stroke-linejoin="round" stroke-linecap="butt" d="m210.00525 259.50394l12.850388 0l0 12.850403l-12.850388 0z" fill-rule="nonzero"></path><path fill="#ffffff" d="m222.85564 259.50394l12.850403 0l0 12.850403l-12.850403 0z" fill-rule="nonzero"></path><path stroke="#000000" stroke-width="2.0" stroke-linejoin="round" stroke-linecap="butt" d="m222.85564 259.50394l12.850403 0l0 12.850403l-12.850403 0z" fill-rule="nonzero"></path><path fill="#ffffff" d="m235.70604 259.50394l12.850388 0l0 12.850403l-12.850388 0z" fill-rule="nonzero"></path><path stroke="#000000" stroke-width="2.0" stroke-linejoin="round" stroke-linecap="butt" d="m235.70604 259.50394l12.850388 0l0 12.850403l-12.850388 0z" fill-rule="nonzero"></path><path fill="#ffffff" d="m248.55643 259.50394l12.850403 0l0 12.850403l-12.850403 0z" fill-rule="nonzero"></path><path stroke="#000000" stroke-width="2.0" stroke-linejoin="round" stroke-linecap="butt" d="m248.55643 259.50394l12.850403 0l0 12.850403l-12.850403 0z" fill-rule="nonzero"></path><path fill="#ffffff" d="m261.40683 259.50394l12.850403 0l0 12.850403l-12.850403 0z" fill-rule="nonzero"></path><path stroke="#000000" stroke-width="2.0" stroke-linejoin="round" stroke-linecap="butt" d="m261.40683 259.50394l12.850403 0l0 12.850403l-12.850403 0z" fill-rule="nonzero"></path><path fill="#ffffff" d="m274.25723 259.50394l12.850372 0l0 12.850403l-12.850372 0z" fill-rule="nonzero"></path><path stroke="#000000" stroke-width="2.0" stroke-linejoin="round" stroke-linecap="butt" d="m274.25723 259.50394l12.850372 0l0 12.850403l-12.850372 0z" fill-rule="nonzero"></path><path fill="#ffffff" d="m287.1076 259.50394l12.850403 0l0 12.850403l-12.850403 0z" fill-rule="nonzero"></path><path stroke="#000000" stroke-width="2.0" stroke-linejoin="round" stroke-linecap="butt" d="m287.1076 259.50394l12.850403 0l0 12.850403l-12.850403 0z" fill-rule="nonzero"></path><path fill="#ffffff" d="m299.958 259.50394l12.850403 0l0 12.850403l-12.850403 0z" fill-rule="nonzero"></path><path stroke="#000000" stroke-width="2.0" stroke-linejoin="round" stroke-linecap="butt" d="m299.958 259.50394l12.850403 0l0 12.850403l-12.850403 0z" fill-rule="nonzero"></path><path fill="#ffffff" d="m312.8084 259.50394l12.850372 0l0 12.850403l-12.850372 0z" fill-rule="nonzero"></path><path stroke="#000000" stroke-width="2.0" stroke-linejoin="round" stroke-linecap="butt" d="m312.8084 259.50394l12.850372 0l0 12.850403l-12.850372 0z" fill-rule="nonzero"></path><path fill="#ffffff" d="m325.65878 259.50394l12.850403 0l0 12.850403l-12.850403 0z" fill-rule="nonzero"></path><path stroke="#000000" stroke-width="2.0" stroke-linejoin="round" stroke-linecap="butt" d="m325.65878 259.50394l12.850403 0l0 12.850403l-12.850403 0z" fill-rule="nonzero"></path><path fill="#ffffff" d="m338.5092 259.50394l12.850403 0l0 12.850403l-12.850403 0z" fill-rule="nonzero"></path><path stroke="#000000" stroke-width="2.0" stroke-linejoin="round" stroke-linecap="butt" d="m338.5092 259.50394l12.850403 0l0 12.850403l-12.850403 0z" fill-rule="nonzero"></path><path fill="#ffffff" d="m351.3596 259.50394l12.850372 0l0 12.850403l-12.850372 0z" fill-rule="nonzero"></path><path stroke="#000000" stroke-width="2.0" stroke-linejoin="round" stroke-linecap="butt" d="m351.3596 259.50394l12.850372 0l0 12.850403l-12.850372 0z" fill-rule="nonzero"></path><path fill="#ffffff" d="m364.20996 259.50394l12.850403 0l0 12.850403l-12.850403 0z" fill-rule="nonzero"></path><path stroke="#000000" stroke-width="2.0" stroke-linejoin="round" stroke-linecap="butt" d="m364.20996 259.50394l12.850403 0l0 12.850403l-12.850403 0z" fill-rule="nonzero"></path><path fill="#000000" fill-opacity="0.0" d="m87.926506 259.50394l59.086617 -66.99213" fill-rule="nonzero"></path><path stroke="#b6d7a8" stroke-width="2.0" stroke-linejoin="round" stroke-linecap="butt" d="m87.926506 259.50394l59.086617 -66.99213" fill-rule="nonzero"></path><path fill="#000000" fill-opacity="0.0" d="m357.7848 259.50394l-211.27559 -67.74803" fill-rule="nonzero"></path><path stroke="#b6d7a8" stroke-width="2.0" stroke-linejoin="round" stroke-linecap="butt" d="m357.7848 259.50394l-211.27559 -67.74803" fill-rule="nonzero"></path><path fill="#000000" fill-opacity="0.0" d="m332.08398 259.50394l-184.34647 -67.244095" fill-rule="nonzero"></path><path stroke="#b6d7a8" stroke-width="2.0" stroke-linejoin="round" stroke-linecap="butt" d="m332.08398 259.50394l-184.34647 -67.244095" fill-rule="nonzero"></path><path fill="#000000" fill-opacity="0.0" d="m147.01312 192.51181l-7.6850433 -81.51181" fill-rule="nonzero"></path><path stroke="#b6d7a8" stroke-width="2.0" stroke-linejoin="round" stroke-linecap="butt" d="m147.01312 192.51181l-6.558655 -69.5648" fill-rule="evenodd"></path><path fill="#b6d7a8" stroke="#b6d7a8" stroke-width="2.0" stroke-linecap="butt" d="m143.74335 122.63694l-4.1408234 -8.726044l-2.4369354 9.346199z" fill-rule="evenodd"></path><path fill="#ffffff" d="m134.3202 105.99213l0 0c0 -2.76577 2.2421112 -5.0078735 5.0078735 -5.0078735l0 0c1.3281708 0 2.601944 0.5276108 3.5411072 1.466774c0.9391632 0.9391556 1.4667664 2.2129288 1.4667664 3.5410995l0 0c0 2.76577 -2.242096 5.0078735 -5.0078735 5.0078735l0 0c-2.7657623 0 -5.0078735 -2.2421036 -5.0078735 -5.0078735z" fill-rule="nonzero"></path><path fill="#000000" fill-opacity="0.0" d="m139.32808 100.98425l0 10.015747m-5.0078735 -5.0078735l10.015747 0" fill-rule="nonzero"></path><path fill="#000000" fill-opacity="0.0" d="m134.3202 105.99213l0 0c0 -2.76577 2.2421112 -5.0078735 5.0078735 -5.0078735l0 0c1.3281708 0 2.601944 0.5276108 3.5411072 1.466774c0.9391632 0.9391556 1.4667664 2.2129288 1.4667664 3.5410995l0 0c0 2.76577 -2.242096 5.0078735 -5.0078735 5.0078735l0 0c-2.7657623 0 -5.0078735 -2.2421036 -5.0078735 -5.0078735z" fill-rule="nonzero"></path><path stroke="#000000" stroke-width="2.0" stroke-linejoin="round" stroke-linecap="butt" d="m139.32808 100.98425l0 10.015747m-5.0078735 -5.0078735l10.015747 0" fill-rule="nonzero"></path><path stroke="#000000" stroke-width="2.0" stroke-linejoin="round" stroke-linecap="butt" d="m134.3202 105.99213l0 0c0 -2.76577 2.2421112 -5.0078735 5.0078735 -5.0078735l0 0c1.3281708 0 2.601944 0.5276108 3.5411072 1.466774c0.9391632 0.9391556 1.4667664 2.2129288 1.4667664 3.5410995l0 0c0 2.76577 -2.242096 5.0078735 -5.0078735 5.0078735l0 0c-2.7657623 0 -5.0078735 -2.2421036 -5.0078735 -5.0078735z" fill-rule="nonzero"></path><path fill="#000000" fill-opacity="0.0" d="m180.38058 105.99213l77.00787 0" fill-rule="nonzero"></path><path stroke="#000000" stroke-width="2.0" stroke-linejoin="round" stroke-linecap="butt" d="m180.38058 105.99213l65.00787 0" fill-rule="evenodd"></path><path fill="#000000" stroke="#000000" stroke-width="2.0" stroke-linecap="butt" d="m245.38846 109.29559l9.076187 -3.3034668l-9.076187 -3.3034668z" fill-rule="evenodd"></path><path fill="#ffffff" d="m223.70079 105.99213l0 0c0 -2.76577 2.242096 -5.0078735 5.0078735 -5.0078735l0 0c1.3281708 0 2.601944 0.5276108 3.5411072 1.466774c0.93914795 0.9391556 1.4667664 2.2129288 1.4667664 3.5410995l0 0c0 2.76577 -2.242096 5.0078735 -5.0078735 5.0078735l0 0c-2.7657776 0 -5.0078735 -2.2421036 -5.0078735 -5.0078735z" fill-rule="nonzero"></path><path fill="#000000" fill-opacity="0.0" d="m228.70866 100.98425l0 10.015747m-5.0078735 -5.0078735l10.015747 0" fill-rule="nonzero"></path><path fill="#000000" fill-opacity="0.0" d="m223.70079 105.99213l0 0c0 -2.76577 2.242096 -5.0078735 5.0078735 -5.0078735l0 0c1.3281708 0 2.601944 0.5276108 3.5411072 1.466774c0.93914795 0.9391556 1.4667664 2.2129288 1.4667664 3.5410995l0 0c0 2.76577 -2.242096 5.0078735 -5.0078735 5.0078735l0 0c-2.7657776 0 -5.0078735 -2.2421036 -5.0078735 -5.0078735z" fill-rule="nonzero"></path><path stroke="#000000" stroke-width="2.0" stroke-linejoin="round" stroke-linecap="butt" d="m228.70866 100.98425l0 10.015747m-5.0078735 -5.0078735l10.015747 0" fill-rule="nonzero"></path><path stroke="#000000" stroke-width="2.0" stroke-linejoin="round" stroke-linecap="butt" d="m223.70079 105.99213l0 0c0 -2.76577 2.242096 -5.0078735 5.0078735 -5.0078735l0 0c1.3281708 0 2.601944 0.5276108 3.5411072 1.466774c0.93914795 0.9391556 1.4667664 2.2129288 1.4667664 3.5410995l0 0c0 2.76577 -2.242096 5.0078735 -5.0078735 5.0078735l0 0c-2.7657776 0 -5.0078735 -2.2421036 -5.0078735 -5.0078735z" fill-rule="nonzero"></path><path fill="#000000" fill-opacity="0.0" d="m202.0 106.0l-11.748032 88.0" fill-rule="nonzero"></path><path stroke="#a4c2f4" stroke-width="2.0" stroke-linejoin="round" stroke-linecap="butt" d="m202.0 106.0l-11.748032 88.0" fill-rule="nonzero"></path><path fill="#000000" fill-opacity="0.0" d="m152.49213 214.49606l-26.015747 37.32283" fill-rule="nonzero"></path><path stroke="#a4c2f4" stroke-width="2.0" stroke-linejoin="round" stroke-linecap="butt" d="m152.49213 214.49606l-19.153732 27.478409" fill-rule="evenodd"></path><path fill="#a4c2f4" stroke="#a4c2f4" stroke-width="2.0" stroke-linecap="butt" d="m130.62834 240.08543l-2.4800262 9.334869l7.9001465 -5.556793z" fill-rule="evenodd"></path><path fill="#000000" fill-opacity="0.0" d="m152.24147 215.25197l-12.913391 36.566925" fill-rule="nonzero"></path><path stroke="#a4c2f4" stroke-width="2.0" stroke-linejoin="round" stroke-linecap="butt" d="m152.24147 215.25197l-8.917511 25.25177" fill-rule="evenodd"></path><path fill="#a4c2f4" stroke="#a4c2f4" stroke-width="2.0" stroke-linecap="butt" d="m140.20903 239.40372l0.09265137 9.658234l6.1372223 -7.458191z" fill-rule="evenodd"></path><path fill="#000000" fill-opacity="0.0" d="m152.49213 214.74803l-0.31495667 37.07086" fill-rule="nonzero"></path><path stroke="#a4c2f4" stroke-width="2.0" stroke-linejoin="round" stroke-linecap="butt" d="m152.49213 214.74803l-0.2130127 25.07129" fill-rule="evenodd"></path><path fill="#a4c2f4" stroke="#a4c2f4" stroke-width="2.0" stroke-linecap="butt" d="m148.97577 239.79126l3.226242 9.103943l3.3804474 -9.047806z" fill-rule="evenodd"></path><path fill="#000000" fill-opacity="0.0" d="m306.3832 259.50394l-68.37796 -65.76378" fill-rule="nonzero"></path><path stroke="#b6d7a8" stroke-width="2.0" stroke-linejoin="round" stroke-linecap="butt" d="m306.3832 259.50394l-68.37796 -65.76378" fill-rule="nonzero"></path><path fill="#000000" fill-opacity="0.0" d="m280.6824 259.50394l-43.18109 -65.51181" fill-rule="nonzero"></path><path stroke="#b6d7a8" stroke-width="2.0" stroke-linejoin="round" stroke-linecap="butt" d="m280.6824 259.50394l-43.18109 -65.51181" fill-rule="nonzero"></path><path fill="#000000" fill-opacity="0.0" d="m254.98163 259.50394l-17.480316 -65.51181" fill-rule="nonzero"></path><path stroke="#b6d7a8" stroke-width="2.0" stroke-linejoin="round" stroke-linecap="butt" d="m254.98163 259.50394l-17.480316 -65.51181" fill-rule="nonzero"></path><path fill="#000000" fill-opacity="0.0" d="m237.49606 194.49606l-8.787399 -83.49606" fill-rule="nonzero"></path><path stroke="#b6d7a8" stroke-width="2.0" stroke-linejoin="round" stroke-linecap="butt" d="m237.49606 194.49606l-7.531418 -71.56197" fill-rule="evenodd"></path><path fill="#b6d7a8" stroke="#b6d7a8" stroke-width="2.0" stroke-linecap="butt" d="m233.24997 122.58833l-4.2352905 -8.680588l-2.3353577 9.372101z" fill-rule="evenodd"></path><path fill="#000000" fill-opacity="0.0" d="m85.37533 282.62204l54.944878 0l0 -4.62204l9.244095 9.24408l-9.244095 9.24411l0 -4.62204l-54.944878 0z" fill-rule="nonzero"></path><path stroke="#a4c2f4" stroke-width="2.0" stroke-linejoin="round" stroke-linecap="butt" d="m85.37533 282.62204l54.944878 0l0 -4.62204l9.244095 9.24408l-9.244095 9.24411l0 -4.62204l-54.944878 0z" fill-rule="nonzero"></path><path fill="#000000" fill-opacity="0.0" d="m277.24933 282.62204l-13.023621 0l0 -4.62204l-9.24408 9.24408l9.24408 9.24411l0 -4.62204l13.023621 0z" fill-rule="nonzero"></path><path stroke="#b6d7a8" stroke-width="2.0" stroke-linejoin="round" stroke-linecap="butt" d="m277.24933 282.62204l-13.023621 0l0 -4.62204l-9.24408 9.24408l9.24408 9.24411l0 -4.62204l13.023621 0z" fill-rule="nonzero"></path><path fill="#000000" fill-opacity="0.0" d="m301.0315 282.74014l-12.346466 0l0 9.007874l12.346466 0z" fill-rule="nonzero"></path><path stroke="#b6d7a8" stroke-width="2.0" stroke-linejoin="round" stroke-linecap="butt" d="m301.0315 282.74014l-12.346466 0l0 9.007874l12.346466 0z" fill-rule="nonzero"></path><path fill="#000000" fill-opacity="0.0" d="m324.81366 282.74014l-12.346466 0l0 9.007874l12.346466 0z" fill-rule="nonzero"></path><path stroke="#b6d7a8" stroke-width="2.0" stroke-linejoin="round" stroke-linecap="butt" d="m324.81366 282.74014l-12.346466 0l0 9.007874l12.346466 0z" fill-rule="nonzero"></path><path fill="#000000" fill-opacity="0.0" d="m348.5958 282.74014l-12.346466 0l0 9.007874l12.346466 0z" fill-rule="nonzero"></path><path stroke="#b6d7a8" stroke-width="2.0" stroke-linejoin="round" stroke-linecap="butt" d="m348.5958 282.74014l-12.346466 0l0 9.007874l12.346466 0z" fill-rule="nonzero"></path><path fill="#000000" fill-opacity="0.0" d="m372.37796 282.74014l-12.346466 0l0 9.007874l12.346466 0z" fill-rule="nonzero"></path><path stroke="#b6d7a8" stroke-width="2.0" stroke-linejoin="round" stroke-linecap="butt" d="m372.37796 282.74014l-12.346466 0l0 9.007874l12.346466 0z" fill-rule="nonzero"></path><path fill="#000000" fill-opacity="0.0" d="m433.96063 46.998688l0 60.0" fill-rule="nonzero"></path><path stroke="#000000" stroke-width="2.0" stroke-linejoin="round" stroke-linecap="butt" d="m433.96063 46.998688l0 60.0" fill-rule="nonzero"></path><path fill="#000000" fill-opacity="0.0" d="m433.96063 105.990814l47.496063 0" fill-rule="nonzero"></path><path stroke="#000000" stroke-width="2.0" stroke-linejoin="round" stroke-linecap="butt" d="m433.96063 105.990814l35.496063 0" fill-rule="evenodd"></path><path fill="#000000" stroke="#000000" stroke-width="2.0" stroke-linecap="butt" d="m469.4567 109.29428l9.076202 -3.3034668l-9.076202 -3.3034668z" fill-rule="evenodd"></path><path fill="#000000" fill-opacity="0.0" d="m419.99213 16.0l64.188965 0l0 36.503937l-64.188965 0z" fill-rule="nonzero"></path><path fill="#000000" d="m435.42963 40.36l0 -1.046875q-0.78125 1.234375 -2.3125 1.234375q-1.0 0 -1.828125 -0.546875q-0.828125 -0.546875 -1.296875 -1.53125q-0.453125 -0.984375 -0.453125 -2.25q0 -1.25 0.40625 -2.25q0.421875 -1.015625 1.25 -1.546875q0.828125 -0.546875 1.859375 -0.546875q0.75 0 1.328125 0.3125q0.59375 0.3125 0.953125 0.828125l0 -4.109375l1.40625 0l0 11.453125l-1.3125 0zm-4.4375 -4.140625q0 1.59375 0.671875 2.390625q0.671875 0.78125 1.578125 0.78125q0.921875 0 1.5625 -0.75q0.65625 -0.765625 0.65625 -2.3125q0 -1.703125 -0.65625 -2.5q-0.65625 -0.796875 -1.625 -0.796875q-0.9375 0 -1.5625 0.765625q-0.625 0.765625 -0.625 2.421875zm7.9609375 4.140625l0 -11.453125l1.40625 0l0 6.53125l3.328125 -3.375l1.828125 0l-3.171875 3.078125l3.484375 5.21875l-1.734375 0l-2.734375 -4.25l-1.0 0.953125l0 3.296875l-1.40625 0zm8.0 -9.84375l0 -1.609375l1.40625 0l0 1.609375l-1.40625 0zm0 9.84375l0 -8.296875l1.40625 0l0 8.296875l-1.40625 0zm8.9296875 0l0 -1.046875q-0.78125 1.234375 -2.3125 1.234375q-1.0 0 -1.828125 -0.546875q-0.828125 -0.546875 -1.296875 -1.53125q-0.453125 -0.984375 -0.453125 -2.25q0 -1.25 0.40625 -2.25q0.421875 -1.015625 1.25 -1.546875q0.828125 -0.546875 1.859375 -0.546875q0.75 0 1.328125 0.3125q0.59375 0.3125 0.953125 0.828125l0 -4.109375l1.40625 0l0 11.453125l-1.3125 0zm-4.4375 -4.140625q0 1.59375 0.671875 2.390625q0.671875 0.78125 1.578125 0.78125q0.921875 0 1.5625 -0.75q0.65625 -0.765625 0.65625 -2.3125q0 -1.703125 -0.65625 -2.5q-0.65625 -0.796875 -1.625 -0.796875q-0.9375 0 -1.5625 0.765625q-0.625 0.765625 -0.625 2.421875z" fill-rule="nonzero"></path><path fill="#000000" d="m459.07806 39.594376l0 -1.109375l0.96875 0l0 1.109375l-0.96875 0zm0 6.765625l0 -5.703125l0.96875 0l0 5.703125l-0.96875 0z" fill-rule="nonzero"></path><path fill="#000000" fill-opacity="0.0" d="m493.2651 105.49213l46.362213 0" fill-rule="nonzero"></path><path stroke="#000000" stroke-width="2.0" stroke-linejoin="round" stroke-linecap="butt" d="m493.2651 105.49213l46.362213 0" fill-rule="nonzero"></path><path fill="#000000" fill-opacity="0.0" d="m538.8714 104.99869l0 -58.01575" fill-rule="nonzero"></path><path stroke="#000000" stroke-width="2.0" stroke-linejoin="round" stroke-linecap="butt" d="m538.8714 104.99869l0 -46.015747" fill-rule="evenodd"></path><path fill="#000000" stroke="#000000" stroke-width="2.0" stroke-linecap="butt" d="m542.17487 58.98294l-3.3034668 -9.076195l-3.3034668 9.076195z" fill-rule="evenodd"></path><path fill="#000000" fill-opacity="0.0" d="m523.6116 15.998688l51.40155 0l0 36.503937l-51.40155 0z" fill-rule="nonzero"></path><path fill="#000000" d="m533.6741 40.35869l0 -11.453125l1.40625 0l0 6.53125l3.328125 -3.375l1.828125 0l-3.171875 3.078125l3.484375 5.21875l-1.734375 0l-2.734375 -4.25l-1.0 0.953125l0 3.296875l-1.40625 0zm13.671875 -2.671875l1.453125 0.171875q-0.34375 1.28125 -1.28125 1.984375q-0.921875 0.703125 -2.359375 0.703125q-1.828125 0 -2.890625 -1.125q-1.0625 -1.125 -1.0625 -3.140625q0 -2.09375 1.078125 -3.25q1.078125 -1.15625 2.796875 -1.15625q1.65625 0 2.703125 1.140625q1.0625 1.125 1.0625 3.171875q0 0.125 0 0.375l-6.1875 0q0.078125 1.375 0.765625 2.109375q0.703125 0.71875 1.734375 0.71875q0.78125 0 1.328125 -0.40625q0.546875 -0.40625 0.859375 -1.296875zm-4.609375 -2.28125l4.625 0q-0.09375 -1.046875 -0.53125 -1.5625q-0.671875 -0.8125 -1.734375 -0.8125q-0.96875 0 -1.640625 0.65625q-0.65625 0.640625 -0.71875 1.71875zm7.7734375 8.15625l-0.15625 -1.328125q0.453125 0.125 0.796875 0.125q0.46875 0 0.75 -0.15625q0.28125 -0.15625 0.46875 -0.4375q0.125 -0.203125 0.421875 -1.046875q0.046875 -0.109375 0.125 -0.34375l-3.140625 -8.3125l1.515625 0l1.71875 4.796875q0.34375 0.921875 0.609375 1.921875q0.234375 -0.96875 0.578125 -1.890625l1.765625 -4.828125l1.40625 0l-3.15625 8.4375q-0.5 1.375 -0.78125 1.890625q-0.375 0.6875 -0.859375 1.015625q-0.484375 0.328125 -1.15625 0.328125q-0.40625 0 -0.90625 -0.171875z" fill-rule="nonzero"></path><path fill="#000000" d="m558.2444 39.593063l0 -1.109375l0.96875 0l0 1.109375l-0.96875 0zm0 6.765625l0 -5.703125l0.96875 0l0 5.703125l-0.96875 0z" fill-rule="nonzero"></path><path fill="#cfe2f3" d="m388.07086 79.53937l0 0c0 -3.5485382 2.876648 -6.425194 6.4252014 -6.425194l0 0l0 0c1.704071 0 3.3383484 0.6769409 4.5433044 1.881897c1.204956 1.204956 1.881897 2.8392334 1.881897 4.543297l0 101.03938c0 3.5485382 -2.876648 6.425186 -6.4252014 6.425186l0 0l0 0c-3.5485535 0 -6.4252014 -2.876648 -6.4252014 -6.425186z" fill-rule="nonzero"></path><path stroke="#000000" stroke-width="2.0" stroke-linejoin="round" stroke-linecap="butt" d="m388.07086 79.53937l0 0c0 -3.5485382 2.876648 -6.425194 6.4252014 -6.425194l0 0l0 0c1.704071 0 3.3383484 0.6769409 4.5433044 1.881897c1.204956 1.204956 1.881897 2.8392334 1.881897 4.543297l0 101.03938c0 3.5485382 -2.876648 6.425186 -6.4252014 6.425186l0 0l0 0c-3.5485535 0 -6.4252014 -2.876648 -6.4252014 -6.425186z" fill-rule="nonzero"></path><path fill="#000000" fill-opacity="0.0" d="m368.41995 171.0l18.992126 0" fill-rule="nonzero"></path><path stroke="#000000" stroke-width="2.0" stroke-linejoin="round" stroke-linecap="butt" d="m368.41995 171.0l6.9921265 0" fill-rule="evenodd"></path><path fill="#000000" stroke="#000000" stroke-width="2.0" stroke-linecap="butt" d="m375.41208 174.30347l9.076202 -3.3034668l-9.076202 -3.3034668z" fill-rule="evenodd"></path><path fill="#000000" fill-opacity="0.0" d="m368.41995 105.99213l18.992126 0" fill-rule="nonzero"></path><path stroke="#000000" stroke-width="2.0" stroke-linejoin="round" stroke-linecap="butt" d="m368.41995 105.99213l6.9921265 0" fill-rule="evenodd"></path><path fill="#000000" stroke="#000000" stroke-width="2.0" stroke-linecap="butt" d="m375.41208 109.29559l9.076202 -3.3034668l-9.076202 -3.3034668z" fill-rule="evenodd"></path><path fill="#cfe2f3" d="m256.89108 79.53937l0 0c0 -3.5485382 2.876648 -6.425194 6.4252014 -6.425194l0 0l0 0c1.704071 0 3.3383179 0.6769409 4.5433044 1.881897c1.204956 1.204956 1.8818665 2.8392334 1.8818665 4.543297l0 101.03938c0 3.5485382 -2.876648 6.425186 -6.425171 6.425186l0 0l0 0c-3.5485535 0 -6.4252014 -2.876648 -6.4252014 -6.425186z" fill-rule="nonzero"></path><path stroke="#000000" stroke-width="2.0" stroke-linejoin="round" stroke-linecap="butt" d="m256.89108 79.53937l0 0c0 -3.5485382 2.876648 -6.425194 6.4252014 -6.425194l0 0l0 0c1.704071 0 3.3383179 0.6769409 4.5433044 1.881897c1.204956 1.204956 1.8818665 2.8392334 1.8818665 4.543297l0 101.03938c0 3.5485382 -2.876648 6.425186 -6.425171 6.425186l0 0l0 0c-3.5485535 0 -6.4252014 -2.876648 -6.4252014 -6.425186z" fill-rule="nonzero"></path><path fill="#000000" fill-opacity="0.0" d="m270.51443 170.51968l18.992126 0" fill-rule="nonzero"></path><path stroke="#000000" stroke-width="2.0" stroke-linejoin="round" stroke-linecap="butt" d="m270.51443 170.51968l18.992126 0" fill-rule="nonzero"></path><path fill="#000000" fill-opacity="0.0" d="m270.51443 105.51181l18.992126 0" fill-rule="nonzero"></path><path stroke="#000000" stroke-width="2.0" stroke-linejoin="round" stroke-linecap="butt" d="m270.51443 105.51181l18.992126 0" fill-rule="nonzero"></path><path fill="#ffffff" d="m96.93438 255.66142l0 0c0 -2.1221771 1.7203598 -3.8425293 3.8425217 -3.8425293l0 0c1.019104 0 1.99646 0.4048462 2.7170715 1.1254578c0.7206116 0.7206116 1.1254501 1.6979675 1.1254501 2.7170715l0 0c0 2.1221466 -1.7203522 3.842514 -3.8425217 3.842514l0 0c-2.1221619 0 -3.8425217 -1.7203674 -3.8425217 -3.842514z" fill-rule="nonzero"></path><path fill="#000000" fill-opacity="0.0" d="m100.7769 251.8189l0 7.6850433m-3.8425217 -3.842514l7.6850433 0" fill-rule="nonzero"></path><path fill="#000000" fill-opacity="0.0" d="m96.93438 255.66142l0 0c0 -2.1221771 1.7203598 -3.8425293 3.8425217 -3.8425293l0 0c1.019104 0 1.99646 0.4048462 2.7170715 1.1254578c0.7206116 0.7206116 1.1254501 1.6979675 1.1254501 2.7170715l0 0c0 2.1221466 -1.7203522 3.842514 -3.8425217 3.842514l0 0c-2.1221619 0 -3.8425217 -1.7203674 -3.8425217 -3.842514z" fill-rule="nonzero"></path><path stroke="#a4c2f4" stroke-width="2.0" stroke-linejoin="round" stroke-linecap="butt" d="m100.7769 251.8189l0 7.6850433m-3.8425217 -3.842514l7.6850433 0" fill-rule="nonzero"></path><path stroke="#a4c2f4" stroke-width="2.0" stroke-linejoin="round" stroke-linecap="butt" d="m96.93438 255.66142l0 0c0 -2.1221771 1.7203598 -3.8425293 3.8425217 -3.8425293l0 0c1.019104 0 1.99646 0.4048462 2.7170715 1.1254578c0.7206116 0.7206116 1.1254501 1.6979675 1.1254501 2.7170715l0 0c0 2.1221466 -1.7203522 3.842514 -3.8425217 3.842514l0 0c-2.1221619 0 -3.8425217 -1.7203674 -3.8425217 -3.842514z" fill-rule="nonzero"></path><path fill="#ffffff" d="m83.879265 256.17584l0 0c0 -2.1221619 1.7203522 -3.842514 3.8425217 -3.842514l0 0c1.0190964 0 1.99646 0.4048462 2.7170715 1.1254578c0.7206116 0.7206116 1.1254425 1.6979675 1.1254425 2.7170563l0 0c0 2.1221619 -1.7203522 3.8425293 -3.842514 3.8425293l0 0c-2.1221695 0 -3.8425217 -1.7203674 -3.8425217 -3.8425293z" fill-rule="nonzero"></path><path fill="#000000" fill-opacity="0.0" d="m87.72179 252.33333l0 7.6850433m-3.8425217 -3.8425293l7.6850357 0" fill-rule="nonzero"></path><path fill="#000000" fill-opacity="0.0" d="m83.879265 256.17584l0 0c0 -2.1221619 1.7203522 -3.842514 3.8425217 -3.842514l0 0c1.0190964 0 1.99646 0.4048462 2.7170715 1.1254578c0.7206116 0.7206116 1.1254425 1.6979675 1.1254425 2.7170563l0 0c0 2.1221619 -1.7203522 3.8425293 -3.842514 3.8425293l0 0c-2.1221695 0 -3.8425217 -1.7203674 -3.8425217 -3.8425293z" fill-rule="nonzero"></path><path stroke="#a4c2f4" stroke-width="2.0" stroke-linejoin="round" stroke-linecap="butt" d="m87.72179 252.33333l0 7.6850433m-3.8425217 -3.8425293l7.6850357 0" fill-rule="nonzero"></path><path stroke="#a4c2f4" stroke-width="2.0" stroke-linejoin="round" stroke-linecap="butt" d="m83.879265 256.17584l0 0c0 -2.1221619 1.7203522 -3.842514 3.8425217 -3.842514l0 0c1.0190964 0 1.99646 0.4048462 2.7170715 1.1254578c0.7206116 0.7206116 1.1254425 1.6979675 1.1254425 2.7170563l0 0c0 2.1221619 -1.7203522 3.8425293 -3.842514 3.8425293l0 0c-2.1221695 0 -3.8425217 -1.7203674 -3.8425217 -3.8425293z" fill-rule="nonzero"></path><path fill="#ffffff" d="m122.63386 255.66142l0 0c0 -2.1221771 1.7203522 -3.8425293 3.8425217 -3.8425293l0 0c1.0190964 0 1.99646 0.4048462 2.7170715 1.1254578c0.7206116 0.7206116 1.1254425 1.6979675 1.1254425 2.7170715l0 0c0 2.1221466 -1.7203522 3.842514 -3.842514 3.842514l0 0c-2.1221695 0 -3.8425217 -1.7203674 -3.8425217 -3.842514z" fill-rule="nonzero"></path><path fill="#000000" fill-opacity="0.0" d="m126.47638 251.8189l0 7.6850433m-3.8425217 -3.842514l7.6850357 0" fill-rule="nonzero"></path><path fill="#000000" fill-opacity="0.0" d="m122.63386 255.66142l0 0c0 -2.1221771 1.7203522 -3.8425293 3.8425217 -3.8425293l0 0c1.0190964 0 1.99646 0.4048462 2.7170715 1.1254578c0.7206116 0.7206116 1.1254425 1.6979675 1.1254425 2.7170715l0 0c0 2.1221466 -1.7203522 3.842514 -3.842514 3.842514l0 0c-2.1221695 0 -3.8425217 -1.7203674 -3.8425217 -3.842514z" fill-rule="nonzero"></path><path stroke="#a4c2f4" stroke-width="2.0" stroke-linejoin="round" stroke-linecap="butt" d="m126.47638 251.8189l0 7.6850433m-3.8425217 -3.842514l7.6850357 0" fill-rule="nonzero"></path><path stroke="#a4c2f4" stroke-width="2.0" stroke-linejoin="round" stroke-linecap="butt" d="m122.63386 255.66142l0 0c0 -2.1221771 1.7203522 -3.8425293 3.8425217 -3.8425293l0 0c1.0190964 0 1.99646 0.4048462 2.7170715 1.1254578c0.7206116 0.7206116 1.1254425 1.6979675 1.1254425 2.7170715l0 0c0 2.1221466 -1.7203522 3.842514 -3.842514 3.842514l0 0c-2.1221695 0 -3.8425217 -1.7203674 -3.8425217 -3.842514z" fill-rule="nonzero"></path><path fill="#ffffff" d="m109.68241 255.66142l0 0c0 -2.1221771 1.7203598 -3.8425293 3.8425217 -3.8425293l0 0c1.019104 0 1.99646 0.4048462 2.7170715 1.1254578c0.7206116 0.7206116 1.1254501 1.6979675 1.1254501 2.7170715l0 0c0 2.1221466 -1.7203522 3.842514 -3.8425217 3.842514l0 0c-2.1221619 0 -3.8425217 -1.7203674 -3.8425217 -3.842514z" fill-rule="nonzero"></path><path fill="#000000" fill-opacity="0.0" d="m113.52493 251.8189l0 7.6850433m-3.8425217 -3.842514l7.6850433 0" fill-rule="nonzero"></path><path fill="#000000" fill-opacity="0.0" d="m109.68241 255.66142l0 0c0 -2.1221771 1.7203598 -3.8425293 3.8425217 -3.8425293l0 0c1.019104 0 1.99646 0.4048462 2.7170715 1.1254578c0.7206116 0.7206116 1.1254501 1.6979675 1.1254501 2.7170715l0 0c0 2.1221466 -1.7203522 3.842514 -3.8425217 3.842514l0 0c-2.1221619 0 -3.8425217 -1.7203674 -3.8425217 -3.842514z" fill-rule="nonzero"></path><path stroke="#a4c2f4" stroke-width="2.0" stroke-linejoin="round" stroke-linecap="butt" d="m113.52493 251.8189l0 7.6850433m-3.8425217 -3.842514l7.6850433 0" fill-rule="nonzero"></path><path stroke="#a4c2f4" stroke-width="2.0" stroke-linejoin="round" stroke-linecap="butt" d="m109.68241 255.66142l0 0c0 -2.1221771 1.7203598 -3.8425293 3.8425217 -3.8425293l0 0c1.019104 0 1.99646 0.4048462 2.7170715 1.1254578c0.7206116 0.7206116 1.1254501 1.6979675 1.1254501 2.7170715l0 0c0 2.1221466 -1.7203522 3.842514 -3.8425217 3.842514l0 0c-2.1221619 0 -3.8425217 -1.7203674 -3.8425217 -3.842514z" fill-rule="nonzero"></path><path fill="#ffffff" d="m135.48557 255.66142l0 0c0 -2.1221771 1.7203522 -3.8425293 3.842514 -3.8425293l0 0c1.019104 0 1.99646 0.4048462 2.7170715 1.1254578c0.7206116 0.7206116 1.1254578 1.6979675 1.1254578 2.7170715l0 0c0 2.1221466 -1.7203522 3.842514 -3.8425293 3.842514l0 0c-2.1221619 0 -3.842514 -1.7203674 -3.842514 -3.842514z" fill-rule="nonzero"></path><path fill="#000000" fill-opacity="0.0" d="m139.32808 251.8189l0 7.6850433m-3.842514 -3.842514l7.6850433 0" fill-rule="nonzero"></path><path fill="#000000" fill-opacity="0.0" d="m135.48557 255.66142l0 0c0 -2.1221771 1.7203522 -3.8425293 3.842514 -3.8425293l0 0c1.019104 0 1.99646 0.4048462 2.7170715 1.1254578c0.7206116 0.7206116 1.1254578 1.6979675 1.1254578 2.7170715l0 0c0 2.1221466 -1.7203522 3.842514 -3.8425293 3.842514l0 0c-2.1221619 0 -3.842514 -1.7203674 -3.842514 -3.842514z" fill-rule="nonzero"></path><path stroke="#a4c2f4" stroke-width="2.0" stroke-linejoin="round" stroke-linecap="butt" d="m139.32808 251.8189l0 7.6850433m-3.842514 -3.842514l7.6850433 0" fill-rule="nonzero"></path><path stroke="#a4c2f4" stroke-width="2.0" stroke-linejoin="round" stroke-linecap="butt" d="m135.48557 255.66142l0 0c0 -2.1221771 1.7203522 -3.8425293 3.842514 -3.8425293l0 0c1.019104 0 1.99646 0.4048462 2.7170715 1.1254578c0.7206116 0.7206116 1.1254578 1.6979675 1.1254578 2.7170715l0 0c0 2.1221466 -1.7203522 3.842514 -3.8425293 3.842514l0 0c-2.1221619 0 -3.842514 -1.7203674 -3.842514 -3.842514z" fill-rule="nonzero"></path><path fill="#ffffff" d="m148.33464 255.66142l0 0c0 -2.1221771 1.7203522 -3.8425293 3.8425293 -3.8425293l0 0c1.0190887 0 1.99646 0.4048462 2.7170715 1.1254578c0.7206116 0.7206116 1.1254425 1.6979675 1.1254425 2.7170715l0 0c0 2.1221466 -1.7203522 3.842514 -3.842514 3.842514l0 0c-2.1221771 0 -3.8425293 -1.7203674 -3.8425293 -3.842514z" fill-rule="nonzero"></path><path fill="#000000" fill-opacity="0.0" d="m152.17717 251.8189l0 7.6850433m-3.8425293 -3.842514l7.6850433 0" fill-rule="nonzero"></path><path fill="#000000" fill-opacity="0.0" d="m148.33464 255.66142l0 0c0 -2.1221771 1.7203522 -3.8425293 3.8425293 -3.8425293l0 0c1.0190887 0 1.99646 0.4048462 2.7170715 1.1254578c0.7206116 0.7206116 1.1254425 1.6979675 1.1254425 2.7170715l0 0c0 2.1221466 -1.7203522 3.842514 -3.842514 3.842514l0 0c-2.1221771 0 -3.8425293 -1.7203674 -3.8425293 -3.842514z" fill-rule="nonzero"></path><path stroke="#a4c2f4" stroke-width="2.0" stroke-linejoin="round" stroke-linecap="butt" d="m152.17717 251.8189l0 7.6850433m-3.8425293 -3.842514l7.6850433 0" fill-rule="nonzero"></path><path stroke="#a4c2f4" stroke-width="2.0" stroke-linejoin="round" stroke-linecap="butt" d="m148.33464 255.66142l0 0c0 -2.1221771 1.7203522 -3.8425293 3.8425293 -3.8425293l0 0c1.0190887 0 1.99646 0.4048462 2.7170715 1.1254578c0.7206116 0.7206116 1.1254425 1.6979675 1.1254425 2.7170715l0 0c0 2.1221466 -1.7203522 3.842514 -3.842514 3.842514l0 0c-2.1221771 0 -3.8425293 -1.7203674 -3.8425293 -3.842514z" fill-rule="nonzero"></path><path fill="#000000" fill-opacity="0.0" d="m190.75066 193.50131l-38.740158 21.51181" fill-rule="nonzero"></path><path stroke="#a4c2f4" stroke-width="2.0" stroke-linejoin="round" stroke-linecap="butt" d="m190.75066 193.50131l-38.740158 21.51181" fill-rule="nonzero"></path><path fill="#000000" fill-opacity="0.0" d="m71.821526 111.98425l22.267715 0l0 36.503937l-22.267715 0z" fill-rule="nonzero"></path><path fill="#000000" d="m81.5559 136.34425l1.5 -7.203125l-1.265625 0l0.234375 -1.09375l1.265625 0l0.234375 -1.1875q0.1875 -0.875 0.390625 -1.265625q0.203125 -0.390625 0.640625 -0.640625q0.453125 -0.265625 1.234375 -0.265625q0.53125 0 1.5625 0.234375l-0.265625 1.234375q-0.71875 -0.1875 -1.203125 -0.1875q-0.40625 0 -0.625 0.203125q-0.21875 0.203125 -0.375 0.984375l-0.1875 0.890625l1.578125 0l-0.21875 1.09375l-1.578125 0l-1.515625 7.203125l-1.40625 0z" fill-rule="nonzero"></path><path fill="#000000" fill-opacity="0.0" d="m161.35695 111.74016l22.267715 0l0 36.503937l-22.267715 0z" fill-rule="nonzero"></path><path fill="#000000" d="m171.09132 136.10016l1.5 -7.203125l-1.265625 0l0.234375 -1.09375l1.265625 0l0.234375 -1.1875q0.1875 -0.875 0.390625 -1.265625q0.203125 -0.390625 0.640625 -0.640625q0.453125 -0.265625 1.234375 -0.265625q0.53125 0 1.5625 0.234375l-0.265625 1.234375q-0.71875 -0.1875 -1.203125 -0.1875q-0.40625 0 -0.625 0.203125q-0.21875 0.203125 -0.375 0.984375l-0.1875 0.890625l1.578125 0l-0.21875 1.09375l-1.578125 0l-1.515625 7.203125l-1.40625 0z" fill-rule="nonzero"></path><path fill="#000000" fill-opacity="0.0" d="m251.81627 111.74016l22.267715 0l0 36.503937l-22.267715 0z" fill-rule="nonzero"></path><path fill="#000000" d="m261.55066 136.10016l1.5 -7.203125l-1.265625 0l0.234375 -1.09375l1.265625 0l0.234375 -1.1875q0.1875 -0.875 0.390625 -1.265625q0.203125 -0.390625 0.640625 -0.640625q0.453125 -0.265625 1.234375 -0.265625q0.53125 0 1.5625 0.234375l-0.265625 1.234375q-0.71875 -0.1875 -1.203125 -0.1875q-0.40625 0 -0.625 0.203125q-0.21875 0.203125 -0.375 0.984375l-0.1875 0.890625l1.578125 0l-0.21875 1.09375l-1.578125 0l-1.515625 7.203125l-1.40625 0z" fill-rule="nonzero"></path><path fill="#000000" fill-opacity="0.0" d="m382.73227 111.74016l22.26773 0l0 36.503937l-22.26773 0z" fill-rule="nonzero"></path><path fill="#000000" d="m392.46664 136.10016l1.5 -7.203125l-1.265625 0l0.234375 -1.09375l1.265625 0l0.234375 -1.1875q0.1875 -0.875 0.390625 -1.265625q0.203125 -0.390625 0.640625 -0.640625q0.453125 -0.265625 1.234375 -0.265625q0.53125 0 1.5625 0.234375l-0.265625 1.234375q-0.71875 -0.1875 -1.203125 -0.1875q-0.40625 0 -0.625 0.203125q-0.21875 0.203125 -0.375 0.984375l-0.1875 0.890625l1.578125 0l-0.21875 1.09375l-1.578125 0l-1.515625 7.203125l-1.40625 0z" fill-rule="nonzero"></path><path fill="#000000" fill-opacity="0.0" d="m474.81628 111.74016l22.2677 0l0 36.503937l-22.2677 0z" fill-rule="nonzero"></path><path fill="#000000" d="m484.55066 136.10016l1.5 -7.203125l-1.265625 0l0.234375 -1.09375l1.265625 0l0.234375 -1.1875q0.1875 -0.875 0.390625 -1.265625q0.203125 -0.390625 0.640625 -0.640625q0.453125 -0.265625 1.234375 -0.265625q0.53125 0 1.5625 0.234375l-0.265625 1.234375q-0.71875 -0.1875 -1.203125 -0.1875q-0.40625 0 -0.625 0.203125q-0.21875 0.203125 -0.375 0.984375l-0.1875 0.890625l1.578125 0l-0.21875 1.09375l-1.578125 0l-1.515625 7.203125l-1.40625 0z" fill-rule="nonzero"></path><path fill="#000000" fill-opacity="0.0" d="m414.1719 27.622047l0 235.37009" fill-rule="nonzero"></path><path stroke="#000000" stroke-width="2.0" stroke-linejoin="round" stroke-linecap="butt" stroke-dasharray="8.0,6.0" d="m414.1719 27.622047l0 235.37009" fill-rule="nonzero"></path></g></svg>

